
 <svg width="108" height="71" viewBox="0 0 108 71" fill="none" xmlns="http://www.w3.org/2000/svg">
  <path d="M10.2198 0.410889C7.63951 0.410889 5.16491 1.32807 3.34038 2.96066C1.51585 4.59325 0.490845 6.80752 0.490845 9.11635V56.9964H10.2198C10.2198 60.4596 11.7573 63.781 14.4941 66.2299C17.2309 68.6788 20.9428 70.0546 24.8132 70.0546C28.6836 70.0546 32.3955 68.6788 35.1323 66.2299C37.8691 63.781 39.4066 60.4596 39.4066 56.9964H68.5934C68.5934 60.4596 70.1309 63.781 72.8677 66.2299C75.6045 68.6788 79.3164 70.0546 83.1868 70.0546C87.0572 70.0546 90.7691 68.6788 93.5059 66.2299C96.2427 63.781 97.7802 60.4596 97.7802 56.9964H107.509V35.2327L92.9157 17.8218H78.3223V0.410889H10.2198ZM44.2711 9.11635L63.7289 26.5273L44.2711 43.9382V30.88H15.0843V22.1745H44.2711V9.11635ZM78.3223 24.3509H90.4835L100.067 35.2327H78.3223V24.3509ZM24.8132 50.4673C26.7484 50.4673 28.6043 51.1552 29.9727 52.3796C31.3411 53.604 32.1099 55.2648 32.1099 56.9964C32.1099 58.728 31.3411 60.3887 29.9727 61.6131C28.6043 62.8376 26.7484 63.5255 24.8132 63.5255C22.878 63.5255 21.022 62.8376 19.6536 61.6131C18.2852 60.3887 17.5165 58.728 17.5165 56.9964C17.5165 55.2648 18.2852 53.604 19.6536 52.3796C21.022 51.1552 22.878 50.4673 24.8132 50.4673ZM83.1868 50.4673C85.122 50.4673 86.978 51.1552 88.3464 52.3796C89.7148 53.604 90.4835 55.2648 90.4835 56.9964C90.4835 58.728 89.7148 60.3887 88.3464 61.6131C86.978 62.8376 85.122 63.5255 83.1868 63.5255C81.2516 63.5255 79.3957 62.8376 78.0273 61.6131C76.6589 60.3887 75.8901 58.728 75.8901 56.9964C75.8901 55.2648 76.6589 53.604 78.0273 52.3796C79.3957 51.1552 81.2516 50.4673 83.1868 50.4673Z" fill="#373639"/>
  </svg>