
<svg width="66" height="44" viewBox="0 0 66 44" fill="none" xmlns="http://www.w3.org/2000/svg">
<path d="M6.04162 0.0361328C4.47124 0.0361328 2.96517 0.608931 1.85474 1.62852C0.744316 2.64811 0.120483 4.03096 0.120483 5.47288V35.375H6.04162C6.04162 37.5379 6.97737 39.6121 8.64301 41.1415C10.3087 42.6709 12.5678 43.5301 14.9233 43.5301C17.2789 43.5301 19.538 42.6709 21.2036 41.1415C22.8693 39.6121 23.805 37.5379 23.805 35.375H41.5685C41.5685 37.5379 42.5042 39.6121 44.1698 41.1415C45.8355 42.6709 48.0946 43.5301 50.4502 43.5301C52.8057 43.5301 55.0648 42.6709 56.7305 41.1415C58.3961 39.6121 59.3319 37.5379 59.3319 35.375H65.253V21.7831L56.3713 10.9096H47.4896V0.0361328H6.04162ZM26.7656 5.47288L38.6079 16.3464L26.7656 27.2199V19.0647H9.00219V13.628H26.7656V5.47288ZM47.4896 14.9872H54.891L60.7233 21.7831H47.4896V14.9872ZM14.9233 31.2974C16.1011 31.2974 17.2307 31.727 18.0635 32.4917C18.8963 33.2564 19.3642 34.2936 19.3642 35.375C19.3642 36.4564 18.8963 37.4936 18.0635 38.2583C17.2307 39.0229 16.1011 39.4525 14.9233 39.4525C13.7455 39.4525 12.616 39.0229 11.7832 38.2583C10.9503 37.4936 10.4825 36.4564 10.4825 35.375C10.4825 34.2936 10.9503 33.2564 11.7832 32.4917C12.616 31.727 13.7455 31.2974 14.9233 31.2974ZM50.4502 31.2974C51.6279 31.2974 52.7575 31.727 53.5903 32.4917C54.4231 33.2564 54.891 34.2936 54.891 35.375C54.891 36.4564 54.4231 37.4936 53.5903 38.2583C52.7575 39.0229 51.6279 39.4525 50.4502 39.4525C49.2724 39.4525 48.1428 39.0229 47.31 38.2583C46.4772 37.4936 46.0093 36.4564 46.0093 35.375C46.0093 34.2936 46.4772 33.2564 47.31 32.4917C48.1428 31.727 49.2724 31.2974 50.4502 31.2974Z" fill="#FFAA33"/>
</svg>
